<svg xmlns="http://www.w3.org/2000/svg" width="512" height="512" viewBox="0 0 128 128" style="enable-background:new 0 0 512 512" xml:space="preserve"><linearGradient id="a" x1="93.891" x2="32.071" y1="95.892" y2="34.072" gradientUnits="userSpaceOnUse"><stop stop-color="#fb0025" offset=".275"/><stop stop-color="#1c00ff" offset="1"/></linearGradient><path fill="url(#a)" d="M35.084 43.918a1.75 1.75 0 0 1-1.25-2.975q.368-.376.747-.74a1.75 1.75 0 1 1 2.428 2.521q-.341.33-.675.669a1.743 1.743 0 0 1-1.25.525zm37.139 23.4a11.538 11.538 0 1 0-22.169 4.492 1.75 1.75 0 0 0 3.225-1.363 8.029 8.029 0 1 1 4.2 4.246 1.75 1.75 0 1 0-1.4 3.209 11.542 11.542 0 0 0 16.14-10.583zm-11.538 16.17a7.175 7.175 0 1 1-7.174 7.175 7.183 7.183 0 0 1 7.174-7.175zm0 3.5a3.675 3.675 0 1 0 3.675 3.675 3.679 3.679 0 0 0-3.675-3.675zM37.338 60.141a7.175 7.175 0 1 1-7.175 7.174 7.182 7.182 0 0 1 7.175-7.174zm-3.675 7.174a3.674 3.674 0 1 0 3.675-3.674 3.679 3.679 0 0 0-3.675 3.674zM91.6 32.05a1.75 1.75 0 0 0 2.311-2.63q-.58-.509-1.175-1a1.75 1.75 0 0 0-2.229 2.7q.55.457 1.093.93zm19.483 35.265a1.75 1.75 0 0 1-1.75 1.75H98.276a37.634 37.634 0 1 1-69.1-22.344 1.75 1.75 0 1 1 2.928 1.917 34.138 34.138 0 1 0 62.672 20.427h-3.794a7.171 7.171 0 1 1-9.908-8.282A21.449 21.449 0 0 0 60.685 45.9a1.75 1.75 0 0 1-1.75-1.75v-3.393a3.662 3.662 0 0 0 1.75 6.885 1.75 1.75 0 0 1 0 3.5 7.17 7.17 0 0 1-1.75-14.124v-3.776a33.955 33.955 0 0 0-16.929 5.5 1.75 1.75 0 1 1-1.918-2.928 37.441 37.441 0 0 1 18.847-6.068V27.1a40.261 40.261 0 1 0 41.549 46.366 1.75 1.75 0 1 1 3.459.529A43.766 43.766 0 1 1 58.935 23.6v-4.929a1.75 1.75 0 0 1 1.75-1.75 50.381 50.381 0 0 1 25.2 6.744 1.75 1.75 0 1 1-1.752 3.029 46.868 46.868 0 0 0-21.7-6.241v22.006a24.961 24.961 0 0 1 22.453 18.976 1.74 1.74 0 0 1 .065.256v.069a24.726 24.726 0 0 1 .586 3.8h22A46.954 46.954 0 0 0 96.718 37.3a1.75 1.75 0 1 1 2.688-2.241 50.45 50.45 0 0 1 11.673 32.256zm-23.836 1.75h-3.395a1.75 1.75 0 0 1-1.75-1.75 21.39 21.39 0 0 0-.228-2.954 3.662 3.662 0 1 0 5.37 4.7z" data-original="url(#a)"/></svg>