<svg xmlns="http://www.w3.org/2000/svg" width="512" height="512" viewBox="0 0 300 300" style="enable-background:new 0 0 512 512" xml:space="preserve"><linearGradient id="a" x1="40.913" x2="233.27" y1="235.077" y2="42.72" gradientUnits="userSpaceOnUse"><stop stop-color="#107eff" offset="0"/><stop stop-color="red" offset="1"/></linearGradient><path fill="url(#a)" d="M108.155 52.65v-5.66a4 4 0 0 1 8 0v5.66a4 4 0 0 1-8 0zm4 26.637a4 4 0 0 0 4-4v-5.66a4 4 0 0 0-8 0v5.66a4 4 0 0 0 4 4zM98.007 65.138h5.66a4 4 0 0 0 0-8h-5.66a4 4 0 0 0 0 8zm22.637 0h5.66a4 4 0 0 0 0-8h-5.66a4 4 0 0 0 0 8zm-78.489 4c-7.719 0-14-6.281-14-14s6.281-14 14-14 14 6.281 14 14-6.281 14-14 14zm0-8c3.309 0 6-2.691 6-6s-2.691-6-6-6-6 2.691-6 6 2.692 6 6 6zm179.724 78a4.276 4.276 0 1 0 8.552 0 4.276 4.276 0 0 0-8.552 0zm-67.724-95.723a4.276 4.276 0 1 0 0-8.552 4.276 4.276 0 0 0 0 8.552zM42.432 127.138a4.277 4.277 0 1 0-8.554 0 4.277 4.277 0 0 0 8.554 0zm176.641 88.244c0 9.135-7.432 16.566-16.566 16.566-9.137 0-16.568-7.432-16.568-16.566 0-9.137 7.432-16.568 16.568-16.568 9.135 0 16.566 7.432 16.566 16.568zm-8 0c0-4.725-3.844-8.568-8.566-8.568-4.725 0-8.568 3.844-8.568 8.568 0 4.723 3.844 8.566 8.568 8.566 4.723.001 8.566-3.843 8.566-8.566zm-117.674 0c0 9.135-7.432 16.566-16.568 16.566s-16.568-7.432-16.568-16.566c0-9.137 7.432-16.568 16.568-16.568s16.568 7.432 16.568 16.568zm-8 0c0-4.725-3.844-8.568-8.568-8.568s-8.568 3.844-8.568 8.568c0 4.723 3.844 8.566 8.568 8.566s8.568-3.843 8.568-8.566zm186.245-91.293c-.879 4.391-4.312 7.643-8.746 8.279-.518.074-1.031.109-1.539.109-3.85.002-7.348-2.088-9.186-5.594l-33.064-63.127-17.541 16.968 3.609 4.368c3.512 4.254 2.91 10.57-1.342 14.08a9.957 9.957 0 0 1-6.361 2.287 9.987 9.987 0 0 1-7.717-3.625l-.86-1.041-15.877 8.007c.094.745.126 1.502.053 2.268a10.199 10.199 0 0 1-3.678 6.939 10.225 10.225 0 0 1-6.527 2.346 10.242 10.242 0 0 1-7.918-3.719c-6.362 4.541-8.164 9.853-5.646 16.502h36.642c6.52 0 12.438 4.102 14.729 10.207l17.208 45.891c7.946.51 14.273 7.069 14.273 15.142v29.52c0 8.404-6.836 15.24-15.24 15.24h-.76v8.373c0 6.412-5.217 11.627-11.627 11.627h-12.746c-6.41 0-11.627-5.215-11.627-11.627v-8.373h-80v8.373c0 6.412-5.217 11.627-11.627 11.627H75.782c-6.41 0-11.627-5.215-11.627-11.627v-8.373h-.76c-8.404 0-15.24-6.836-15.24-15.24v-29.52c0-7.726 5.798-14.057 13.26-15.04l1.908-5.088c-2.03.889-4.245 1.429-6.599 1.429-9.137 0-16.568-7.432-16.568-16.568 0-9.135 7.432-16.566 16.568-16.566 1.293 0 2.586.16 3.85.473.211-.389.439-.768.689-1.133a17.094 17.094 0 0 1-1.932-7.908c0-8.879 6.648-16.234 15.229-17.352 1.117-8.58 8.473-15.229 17.354-15.229a17.425 17.425 0 0 1 15.805 10.07c1.933.079 3.755.539 5.478 1.198 11.651-10.977 22.664-17.29 30.612-20.799-1.13-3.827.034-8.135 3.297-10.832a10.188 10.188 0 0 1 7.508-2.305c.767.073 1.504.248 2.219.481l10.854-14.084-.861-1.042c-3.512-4.25-2.91-10.566 1.34-14.08 4.252-3.508 10.57-2.908 14.08 1.34l4.648 5.625 23.178-21.984c3.615-3.434 8.502-4.908 13.416-4.039 4.908.863 9.002 3.916 11.23 8.373l36.029 72.057a10.507 10.507 0 0 1 .897 6.716zM92.155 245.138h-20v8.373c0 2 1.627 3.627 3.627 3.627h12.746c2 0 3.627-1.627 3.627-3.627zm116 0h-20v8.373c0 2 1.627 3.627 3.627 3.627h12.746c2 0 3.627-1.627 3.627-3.627zm8.76-52h-1.831l-.011.002-.013-.002H64.276l-.013.002-.011-.002h-.856c-3.992 0-7.24 3.248-7.24 7.24v29.52c0 3.992 3.248 7.24 7.24 7.24h153.52c3.992 0 7.24-3.248 7.24-7.24v-29.52c-.001-3.992-3.249-7.24-7.241-7.24zm-30.969-56H124.27c-1.088 8.331-8.161 14.89-17.091 15.305-4.041.18-8.721-.338-12.496-2.826a12.017 12.017 0 0 1-1.875 2.797c-2.016 2.246-4.805 3.668-8.32 4.252-.57 4.524-3.525 8.298-7.553 10.074l-6.899 18.398h61.099l43.105-23.512a4 4 0 1 1 3.832 7.024l-30.229 16.488h61.458l-16.118-42.984a7.766 7.766 0 0 0-7.237-5.016zm-36.083-30.656-1.535-1.857c-6.058 2.551-16.774 8.106-28.352 18.674a17.436 17.436 0 0 1 3.456 5.839h17.475c-2.252-8.783.868-16.63 8.956-22.656zm15.247-.17a2.24 2.24 0 0 0-.508-1.652l-9.219-11.158a2.257 2.257 0 0 0-3.182-.303 2.267 2.267 0 0 0-.305 3.186l9.219 11.154a2.265 2.265 0 0 0 3.995-1.227zm34.348-14.658c.029-.309.01-.908-.449-1.465l-22.932-27.748a1.995 1.995 0 0 0-1.543-.727 1.997 1.997 0 0 0-1.541 3.271l22.932 27.752a1.995 1.995 0 0 0 2.814.268h.002a1.986 1.986 0 0 0 .717-1.351zm64.133 29.297-36.029-72.055a7.503 7.503 0 0 0-5.461-4.072 7.526 7.526 0 0 0-6.525 1.965l-23.574 22.36 4.453 5.389 17.057-16.53a7.914 7.914 0 0 1 6.852-2.158 7.948 7.948 0 0 1 5.832 4.197l33.064 63.125c.721 1.377 1.986 1.357 2.5 1.277.512-.072 1.736-.408 2.041-1.932a2.462 2.462 0 0 0-.21-1.566z" data-original="url(#a)"/></svg>