<svg xmlns="http://www.w3.org/2000/svg" width="512" height="512" viewBox="0 0 300 300" style="enable-background:new 0 0 512 512" xml:space="preserve"><linearGradient id="a" x1="53.619" x2="240.112" y1="231.938" y2="45.445" gradientUnits="userSpaceOnUse"><stop stop-color="#107eff" offset="0"/><stop stop-color="red" offset=".591"/></linearGradient><path fill="url(#a)" d="M228.862 49.512v-5.66a4 4 0 0 1 8 0v5.66a4 4 0 0 1-8 0zm4 26.636a4 4 0 0 0 4-4v-5.66a4 4 0 0 0-8 0v5.66a4 4 0 0 0 4 4zM218.713 62h5.66a4 4 0 0 0 0-8h-5.66a4 4 0 0 0 0 8zm28.297-8h-5.66a4 4 0 0 0 0 8h5.66a4 4 0 0 0 0-8zM54.862 66c-7.719 0-14-6.281-14-14s6.281-14 14-14 14 6.281 14 14-6.281 14-14 14zm0-8c3.309 0 6-2.691 6-6s-2.691-6-6-6-6 2.691-6 6 2.691 6 6 6zm200 49.723a4.276 4.276 0 1 0 0 8.553 4.276 4.276 0 0 0 0-8.553zm-164-55.447a4.276 4.276 0 1 0 0-8.552 4.276 4.276 0 0 0 0 8.552zM55.138 124a4.277 4.277 0 1 0-8.554 0 4.277 4.277 0 0 0 8.554 0zm189.724 80.828v14.344c0 10.21-6.738 18.873-16 21.783v9.418c0 6.41-5.217 11.627-11.627 11.627h-12.746c-6.41 0-11.627-5.217-11.627-11.627V242h-80v8.373c0 6.41-5.217 11.627-11.627 11.627H88.489c-6.41 0-11.627-5.217-11.627-11.627v-9.418c-9.262-2.909-16-11.573-16-21.783v-14.344c0-8.82 5.036-16.472 12.376-20.272l2.792-7.444c-2.03.889-4.245 1.429-6.599 1.429-9.137 0-16.568-7.432-16.568-16.568 0-9.135 7.432-16.566 16.568-16.566 1.293 0 2.586.16 3.85.473.211-.389.439-.768.689-1.133a17.094 17.094 0 0 1-1.932-7.908c0-8.879 6.648-16.234 15.229-17.352 1.117-8.58 8.473-15.229 17.354-15.229a17.425 17.425 0 0 1 15.805 10.07c7.289.298 13.384 5.101 15.716 11.672h59.359c8.406 0 16.039 5.289 18.99 13.16l16.807 44.822c7.979 3.561 13.564 11.557 13.564 20.846zM195.499 134h-58.522c-1.088 8.331-8.161 14.89-17.091 15.305-4.037.188-8.721-.338-12.496-2.826a12.017 12.017 0 0 1-1.875 2.797c-2.016 2.246-4.805 3.668-8.32 4.252-.57 4.523-3.525 8.298-7.552 10.074l-6.918 18.448c.323-.014.64-.049.966-.049h60.151l43.105-23.512a4 4 0 0 1 3.832 7.024L160.549 182h61.458l-15.011-40.031c-1.787-4.766-6.408-7.969-11.497-7.969zm-90.637 108h-20v8.373c0 2 1.627 3.627 3.627 3.627h12.746c2 0 3.627-1.627 3.627-3.627zm116 8.373V242h-20v8.373c0 2 1.627 3.627 3.627 3.627h12.746c2 0 3.627-1.627 3.627-3.627zm16-45.545c0-8.176-6.652-14.828-14.828-14.828H83.69c-8.176 0-14.828 6.652-14.828 14.828v14.344c0 8.176 6.652 14.828 14.828 14.828h138.344c8.176 0 14.828-6.652 14.828-14.828zm-5.082 7.416c0 9.135-7.432 16.566-16.566 16.566-9.137 0-16.568-7.432-16.568-16.566 0-9.137 7.432-16.568 16.568-16.568 9.134 0 16.566 7.431 16.566 16.568zm-8 0c0-4.725-3.844-8.568-8.566-8.568-4.725 0-8.568 3.844-8.568 8.568 0 4.723 3.844 8.566 8.568 8.566 4.722.001 8.566-3.843 8.566-8.566zm-117.674 0c0 9.135-7.432 16.566-16.568 16.566s-16.568-7.432-16.568-16.566c0-9.137 7.432-16.568 16.568-16.568s16.568 7.431 16.568 16.568zm-8 0c0-4.725-3.844-8.568-8.568-8.568s-8.568 3.844-8.568 8.568c0 4.723 3.844 8.566 8.568 8.566s8.568-3.843 8.568-8.566zm25.135-115.623c0-9.135 7.432-16.566 16.566-16.566 9.137 0 16.568 7.432 16.568 16.566 0 9.137-7.432 16.568-16.568 16.568-9.135 0-16.566-7.431-16.566-16.568zm8 0c0 4.725 3.844 8.568 8.566 8.568 4.725 0 8.568-3.844 8.568-8.568 0-4.723-3.844-8.566-8.568-8.566-4.723 0-8.566 3.843-8.566 8.566z" data-original="url(#a)"/></svg>