<svg xmlns="http://www.w3.org/2000/svg" width="512" height="512" viewBox="0 0 492 492" style="enable-background:new 0 0 512 512" xml:space="preserve"><linearGradient id="a" x1="73.245" x2="404.485" y1="115.649" y2="446.889" gradientUnits="userSpaceOnUse"><stop stop-color="#000aff" offset="0"/><stop stop-color="#fd0404" offset=".579"/></linearGradient><path fill="url(#a)" d="M395.03 344.13v-78.06c0-15.97-10.96-29.43-25.76-33.23v-55.96c0-25.18-20.47-45.66-45.65-45.66h-41.78v-23.2h13.18c5.58 0 10.9-2.39 14.61-6.57 3.7-4.18 5.45-9.76 4.77-15.32v.01l-5.16-42.8c-1.19-9.8-9.53-17.18-19.39-17.18h-92.72c-9.88 0-18.21 7.39-19.4 17.2l-5.17 42.79a19.542 19.542 0 0 0 4.77 15.29c3.71 4.18 9.04 6.58 14.63 6.58h13.16v23.2h-41.38c-25.18 0-45.65 20.48-45.65 45.66v56.33c0 20-2.85 39.87-8.46 59.08l-15.39 52.72c-20.25 8.35-33.2 27.52-33.2 49.57 0 9.2 2.31 18.33 6.66 26.4 4.35 8.08 10.71 15.01 18.37 20.07 20.62 13.58 44.46 22.28 68.96 25.17 6.18.74 12.47 1.1 18.68 1.1h144.11c6.22 0 12.5-.37 18.66-1.1 8.79-1.03 17.54-2.81 26.06-5.3.42.49.87.96 1.34 1.4 3.47 3.25 7.92 5 12.63 5 .41 0 .83-.01 1.25-.04 9.68-.64 17.27-8.96 17.27-18.95v-.99c3.53-1.96 7.03-4.06 10.42-6.3 15.68-10.32 25.04-27.69 25.04-46.47-.01-22.95-14.1-42.77-35.46-50.44zm-35.87-167.25v54.88h-31.87c-.82-6.11-6.05-10.83-12.37-10.83h-7.15v-34.05c.12-.43.2-.87.2-1.34s-.08-.91-.2-1.34v-42.89h15.84c19.6.01 35.55 15.96 35.55 35.57zm-8.12 91.91c3.85 0 6.98 3.13 6.98 6.97v68.64c-1.51.57-3.02 1.21-4.5 1.92l-18.78 9.09h-26.97v-75.8h7.15c6.32 0 11.55-4.73 12.37-10.83h23.75zm-190.36 96.73h170.17v40.8H160.68zm137-224.2v39.17h-108.4v-39.17zm19.63 95.49v30.31c0 1.32-1.08 2.39-2.39 2.39h-12.1c-.03 0-.06-.01-.09-.01s-.06.01-.09.01h-17.52v-38.48h29.8c1.32 0 2.4 1.07 2.4 2.39zm-42.29-10.92c0 .03-.01.06-.01.09s.01.06.01.09v48.42c0 .03-.01.05-.01.08s.01.05.01.08v5.5c0 2.33-.9 4.53-2.55 6.17a8.692 8.692 0 0 1-6.18 2.56c-4.81 0-8.73-3.92-8.73-8.73V220.4c0-4.81 3.92-8.73 8.74-8.73 4.81 0 8.73 3.92 8.73 8.73zm-85.74-35.29h108.39v30.33h-12.56v-.53c0-10.38-8.44-18.84-18.84-18.84-10.38 0-18.83 8.45-18.83 18.84v59.75c0 10.38 8.46 18.84 18.84 18.84 10.39 0 18.84-8.45 18.84-18.84v-.53h12.56v75.8H189.29zm2.68-92.69c-2.74 0-5.24-1.13-7.07-3.17-1.81-2.05-2.63-4.67-2.3-7.38l5.16-42.79c.58-4.74 4.61-8.3 9.38-8.3h92.72a9.44 9.44 0 0 1 9.36 8.3l5.16 42.79c.32 2.72-.49 5.35-2.32 7.4-1.81 2.04-4.3 3.17-7.04 3.17H191.96zm23.26 10.1h56.5v23.2h-56.5zm-95.89 187.11c5.88-20.14 8.87-40.96 8.87-61.91v-56.33c0-19.61 15.95-35.56 35.56-35.56h15.43v214.09h-22.4L138 346.32c-10.22-4.94-21.4-6.49-32.27-4.63zM76.58 416.18c-3.56-6.6-5.44-14.08-5.45-21.6 0-18.6 11.37-34.7 28.96-41.02 10.99-3.94 22.89-3.29 33.5 1.85l16.98 8.21v91.77c-20.96-3.3-41.23-11.1-58.94-22.78a45.908 45.908 0 0 1-15.05-16.43zm97.13 41.04c-4.33 0-8.69-.2-13.03-.58v-40.23h170.17v40.23c-4.33.38-8.7.58-13.02.58zm167.24-1.82v-91.77l16.98-8.22c.03-.02.07-.03.1-.04v93.44c0 .95.1 1.89.24 2.82-5.7 1.6-11.49 2.86-17.32 3.77zm43.98-7.06c0 4.68-3.44 8.58-7.82 8.87-2.36.16-4.6-.65-6.32-2.25a8.322 8.322 0 0 1-2.66-6.14V275.77c0-9.42-7.66-17.07-17.08-17.07h-23.63v-16.82h33.32c13.34 0 24.19 10.86 24.19 24.2zm14.96-15.73c-1.6 1.05-3.22 2.07-4.86 3.06v-80.65c15.4 7.03 25.36 22.19 25.36 39.56 0 15.36-7.66 29.58-20.5 38.03zm-319.17-271c.89 1.62 2.58 2.63 4.43 2.63s3.55-1.01 4.44-2.62l7.82-14.31 14.33-7.83a5.078 5.078 0 0 0 2.62-4.44c0-1.84-1.01-3.54-2.62-4.43l-14.32-7.83-7.83-14.32c-.89-1.62-2.59-2.63-4.44-2.63s-3.54 1.01-4.43 2.63l-7.82 14.32-14.32 7.83a5.063 5.063 0 0 0-2.63 4.43c0 1.85 1.01 3.55 2.63 4.44l14.32 7.83zm-1.67-30.67c.85-.46 1.55-1.17 2.01-2.02l4.1-7.51 4.1 7.52c.47.84 1.16 1.54 2.01 2.01l7.52 4.1-7.52 4.11c-.85.46-1.54 1.16-2.01 2.01l-4.1 7.51-4.1-7.51a5.049 5.049 0 0 0-2.01-2.01l-7.51-4.11zm354.9 59.12-14.32-7.83-7.83-14.32a5.063 5.063 0 0 0-4.43-2.63c-1.85 0-3.55 1.01-4.44 2.63l-7.83 14.32-14.32 7.83a5.074 5.074 0 0 0-2.62 4.43c0 1.85 1.01 3.54 2.62 4.43l14.32 7.83 7.83 14.31a5.067 5.067 0 0 0 4.44 2.63c1.84 0 3.54-1.01 4.43-2.63l7.83-14.31 14.32-7.83a5.054 5.054 0 0 0 0-8.86zm-20.47 8.54c-.85.46-1.54 1.16-2.01 2.01l-4.1 7.5-4.11-7.5a4.987 4.987 0 0 0-2.01-2.01l-7.51-4.11 7.51-4.11c.85-.46 1.54-1.16 2.01-2.01l4.1-7.51 4.1 7.51c.46.85 1.16 1.55 2.01 2.01l7.51 4.11z" data-original="url(#a)"/></svg>