<svg xmlns="http://www.w3.org/2000/svg" xmlns:xlink="http://www.w3.org/1999/xlink" width="512" height="512" style="enable-background:new 0 0 512 512" xml:space="preserve"><linearGradient id="a" x1="419.381" x2="-92.049" y1="-91.381" y2="420.049" gradientUnits="userSpaceOnUse"><stop stop-color="#f71e1e" offset=".429"/><stop stop-color="#0900ff" offset="1"/></linearGradient><linearGradient xlink:href="#a" id="b" x1="461.23" x2="-50.2" y1="-49.532" y2="461.898"/><linearGradient xlink:href="#a" id="c" x1="608.982" x2="97.551" y1="98.219" y2="609.649"/><linearGradient xlink:href="#a" id="d" x1="555.381" x2="43.951" y1="44.619" y2="556.049"/><linearGradient xlink:href="#a" id="e" x1="556.714" x2="45.284" y1="45.952" y2="557.382"/><linearGradient xlink:href="#a" id="f" x1="601.381" x2="89.951" y1="90.619" y2="602.049"/><linearGradient xlink:href="#a" id="g" x1="467.381" x2="-44.049" y1="-43.381" y2="468.049"/><linearGradient xlink:href="#a" id="h" x1="567.381" x2="55.951" y1="56.619" y2="568.049"/><linearGradient xlink:href="#a" id="i" x1="507.381" x2="-4.049" y1="-3.381" y2="508.049"/><linearGradient xlink:href="#a" id="j" x1="409.881" x2="-101.549" y1="-100.881" y2="410.549"/><path fill="url(#a)" d="M72 224a32 32 0 1 0 32 32 32.036 32.036 0 0 0-32-32zm0 48a16 16 0 1 1 16-16 16.018 16.018 0 0 1-16 16z" data-original="url(#a)"/><path fill="url(#b)" d="M2.343 343.331a8 8 0 0 0-2.021 7.905l7.354 25.107L.322 401.45a8 8 0 0 0 9.927 9.926l25.106-7.354 25.106 7.354a8 8 0 0 0 9.927-9.927l-7.354-25.106 7.354-25.106a8 8 0 0 0-9.927-9.926l-25.106 7.354-25.106-7.354a8 8 0 0 0-7.906 2.02zm21.347 30.764-3.9-13.318 13.317 3.9a7.991 7.991 0 0 0 4.5 0l13.317-3.9-3.9 13.317a8.009 8.009 0 0 0 0 4.5l3.9 13.317-13.317-3.9a8.009 8.009 0 0 0-4.5 0l-13.317 3.9 3.9-13.318a8.005 8.005 0 0 0-.001-4.498z" data-original="url(#b)"/><path fill="url(#c)" d="M352 360h-96a8 8 0 0 0-8 8v58a38.043 38.043 0 0 0 38 38h36a38.043 38.043 0 0 0 38-38v-58a8 8 0 0 0-8-8zm-8 66a22.025 22.025 0 0 1-22 22h-36a22.025 22.025 0 0 1-22-22v-50h80z" data-original="url(#c)"/><path fill="url(#d)" d="M304 344a48 48 0 1 0-48-48 48.054 48.054 0 0 0 48 48zm0-80a32 32 0 1 1-32 32 32.036 32.036 0 0 1 32-32z" data-original="url(#d)"/><path fill="url(#e)" d="M264 0a88.1 88.1 0 0 0-88 88v39.188l-63.45 309.318L84.155 472H24a8 8 0 0 0-8 8v24a8 8 0 0 0 8 8h152a8 8 0 0 0 8-8v-24a8 8 0 0 0-8-8h-16v-31.188l63.837-311.2a7.977 7.977 0 0 0 .156-1.607H224V89.524C224 66.627 241.944 48 264 48s40 18.627 40 41.524V168h-8a8 8 0 0 0-8 8v27.508A98.172 98.172 0 0 0 216 298v176a38.043 38.043 0 0 0 38 38h194c26.467 0 48-25.122 48-56 0-27.7-17.329-50.749-40-55.207V298a98.14 98.14 0 0 0-88-97.494V176a8 8 0 0 0-8-8h-8V88a88.1 88.1 0 0 0-88-88zm55.219 80h16.326a72.391 72.391 0 0 1 .455 8v8h-16v-6.476a59.163 59.163 0 0 0-.781-9.524zm.781 32h16v16h-16zm11.872-48h-17.706a57.909 57.909 0 0 0-5.6-9.254l11.654-11.652A71.95 71.95 0 0 1 331.872 64zm-34.527-20.659a55.7 55.7 0 0 0-10.879-6.493l12.028-12.028a72.259 72.259 0 0 1 10.411 6.961zM192 104h16v16h-16zm3.729-38.821 15.909 3.977a58.537 58.537 0 0 0-3.6 18.844H192a71.67 71.67 0 0 1 3.729-22.821zm23.79-10.545-16.9-4.224a72.524 72.524 0 0 1 12.89-15.584l11.533 11.533a57.413 57.413 0 0 0-7.523 8.274zm9.116-29.312A71.5 71.5 0 0 1 248 17.814v16.591a54.666 54.666 0 0 0-7.4 2.879zM168 496H32v-8h136zm-63.355-24 19.2-24H144v24zm40.83-40h-15.667l60.718-296h15.667zM264 16a71.849 71.849 0 0 1 18.317 2.369L268.485 32.2C267 32.08 265.511 32 264 32zm56 128h16v24h-16zm-16 40h48v16h-38a98.7 98.7 0 0 0-10 .506zm-72 290V298a82.093 82.093 0 0 1 82-82h5.714C350.75 216 376 252.785 376 298v198H254a22.025 22.025 0 0 1-22-22zm248-18c0 22.056-14.355 40-32 40s-32-17.944-32-40 14.355-40 32-40 32 17.944 32 40zm-40-158v102.793c-22.671 4.458-40 27.51-40 55.207 0 15.658 5.544 29.828 14.453 40H392V298c0-25.693-7.216-49.945-20.319-68.29a83 83 0 0 0-12.152-13.672A82.08 82.08 0 0 1 440 298z" data-original="url(#e)"/><path fill="url(#f)" d="M280 392h16v24h-16z" data-original="url(#f)"/><path fill="url(#g)" d="M96 312h16v16H96z" data-original="url(#g)"/><path fill="url(#h)" d="M184 424h16v16h-16z" data-original="url(#h)"/><path fill="url(#i)" d="M56 432h16v16H56z" data-original="url(#i)"/><path fill="url(#j)" d="M0 293h16v16H0z" data-original="url(#j)"/></svg>