<svg xmlns="http://www.w3.org/2000/svg" width="512" height="512" viewBox="0 0 496 496" style="enable-background:new 0 0 512 512" xml:space="preserve"><linearGradient id="a" x1="248" x2="248" y1="496" y2="0" gradientUnits="userSpaceOnUse"><stop stop-color="#ff2f2f" offset=".298"/><stop stop-color="#120bd3" offset="1"/></linearGradient><path fill="url(#a)" d="M0 152c0 82.984 66.871 150.55 149.55 151.871C146.032 316.68 144 330.098 144 344c0 83.816 68.184 152 152 152s152-68.184 152-152c0-82.992-66.887-150.559-149.574-151.879C302.09 178.921 304 165.473 304 152 304 68.184 235.816 0 152 0S0 68.184 0 152zm432 192c0 74.992-61.008 136-136 136s-136-61.008-136-136 61.008-136 136-136 136 61.008 136 136zM152 16c74.992 0 136 61.008 136 136 0 13.688-2.266 27.352-6.504 40.734-6.047.578-11.976 1.54-17.8 2.801C269.12 181.665 272 166.895 272 152c0-66.168-53.832-120-120-120S32 85.832 32 152c0 28.809 10.457 56.71 29.434 78.566l12.078-10.488A103.969 103.969 0 0 1 48.359 160H80v-16H48.406c.434-5.61 1.32-11.078 2.61-16.398l30.039 9.757 4.937-15.214-30.105-9.778c2.136-5.152 4.738-10.047 7.633-14.75l25.52 18.535 9.41-12.937-25.555-18.559A105.545 105.545 0 0 1 84.64 72.91l18.558 25.555 12.938-9.41-18.535-25.52c4.695-2.902 9.597-5.504 14.75-7.633l9.777 30.106 15.215-4.938-9.758-30.039a103.019 103.019 0 0 1 16.398-2.605V80h16V48.406c5.61.434 11.078 1.32 16.399 2.61l-9.758 30.039 15.215 4.937 9.777-30.105c5.153 2.136 10.047 4.738 14.75 7.633l-18.535 25.52 12.938 9.41 18.558-25.555A105.178 105.178 0 0 1 231.07 84.64l-25.55 18.558 9.41 12.938 25.52-18.535c2.902 4.695 5.503 9.597 7.628 14.75l-30.101 9.777 4.933 15.215 30.043-9.758a103.464 103.464 0 0 1 2.606 16.398H224v16h31.656c-1.136 14.528-5.383 28.735-12.433 41.641-27.703 10.305-51.559 28.414-68.95 51.719C166.727 255.03 159.23 256 152 256c-24.953 0-49.137-9.063-68.09-25.504l-10.484 12.078C95.289 261.543 123.19 272 152 272c3.465 0 7.008-.336 10.535-.664-2.902 5.312-5.398 10.863-7.664 16.535-.95.05-1.902.129-2.871.129-74.992 0-136-61.008-136-136S77.008 16 152 16zm24 328v8h64v-8c0-30.871 25.129-56 56-56 14.39 0 27.488 5.504 37.414 14.457L295.56 416.039C282.535 416.29 272 426.922 272 440c0 13.23 10.77 24 24 24s24-10.77 24-24c0-7.664-3.68-14.434-9.297-18.824l34.578-103.735A55.661 55.661 0 0 1 352 344v8h64v-8c0-66.168-53.832-120-120-120s-120 53.832-120 120zm120 104c-4.414 0-8-3.586-8-8s3.586-8 8-8 8 3.586 8 8-3.586 8-8 8zm103.695-112h-32.144c-1.574-14.176-7.328-27.09-15.934-37.574l7.969-23.899-15.172-5.062-5.574 16.719C326.863 277.289 312.04 272 296 272c-37 0-67.559 28.047-71.55 64h-32.145c4.101-53.625 49.039-96 103.695-96s99.594 42.375 103.695 96zM432 32h-64v48h64zm-16 32h-32V48h32zm48-35.313V24c0-13.23-10.77-24-24-24h-80c-13.23 0-24 10.77-24 24v105.473c-9.29 3.312-16 12.113-16 22.527v24h160v-24c0-10.414-6.71-19.215-16-22.527V120h8c13.23 0 24-10.77 24-24V70.625c0-6.41-2.496-12.441-7.031-16.969zM360 16h80c4.414 0 8 3.586 8 8v104h-96V24c0-4.414 3.586-8 8-8zm104 144H336v-8c0-4.414 3.586-8 8-8h112c4.414 0 8 3.586 8 8zm16-64c0 4.414-3.586 8-8 8h-8V51.312l13.656 13.657A8.038 8.038 0 0 1 480 70.625zM152 240c13.23 0 24-10.77 24-24 0-10.414-6.71-19.215-16-22.527V112h-16v81.473c-9.29 3.312-16 12.113-16 22.527 0 13.23 10.77 24 24 24zm0-32c4.414 0 8 3.586 8 8s-3.586 8-8 8-8-3.586-8-8 3.586-8 8-8zm0 0" data-original="url(#a)"/></svg>