<svg xmlns="http://www.w3.org/2000/svg" version="1.1" xmlns:xlink="http://www.w3.org/1999/xlink" xmlns:svgjs="http://svgjs.com/svgjs" width="512" height="512" x="0" y="0" viewBox="0 0 64 64" style="enable-background:new 0 0 512 512" xml:space="preserve"><g><linearGradient id="a" x1="7.087" x2="54.229" y1="1.74" y2="57.454" gradientUnits="userSpaceOnUse"><stop stop-opacity="1" stop-color="#fbb03b" offset="0"></stop><stop stop-opacity="1" stop-color="#fa3939" offset="0"></stop><stop stop-opacity="1" stop-color="#4234f7" offset="0"></stop><stop stop-opacity="1" stop-color="#2b1ced" offset="0"></stop><stop stop-opacity="1" stop-color="#f14a2b" offset="0.5833332940874786"></stop></linearGradient><path fill="url(#a)" d="M42.531 6.3a14.451 14.451 0 1 0 14.45 14.451A14.466 14.466 0 0 0 42.531 6.3zm-2.573 26.63v-4.705a1 1 0 0 0-.585-.91 7.163 7.163 0 0 1-4.106-6.544 7.378 7.378 0 0 1 2.077-5.089v4.656a1 1 0 0 0 .51.872l4.188 2.35a1 1 0 0 0 .979 0l4.187-2.35a1 1 0 0 0 .511-.872v-4.647a7.261 7.261 0 0 1-2.047 11.633 1 1 0 0 0-.568.9v4.706a12.35 12.35 0 0 1-5.146 0zm7.142-.61v-3.49a9.265 9.265 0 0 0 .123-16.044 1 1 0 0 0-1.508.861v6.106l-3.188 1.789-3.187-1.789v-6.106a1 1 0 0 0-1.5-.867 9.335 9.335 0 0 0-4.579 7.991 9.2 9.2 0 0 0 4.691 8.071v3.478a12.45 12.45 0 1 1 9.146 0zM20.75 62.428h26.943a1 1 0 0 0 1-1v-3.455a8.994 8.994 0 0 0-2.52-17.8l-20.436 2.013-2.717-24.077a7.528 7.528 0 0 0-4.374-6.009 4 4 0 0 0 .372-.416 3.808 3.808 0 0 0 .7-2.852L19.19 5.4a3.838 3.838 0 0 0-4.376-3.21l-5.21.8A2.041 2.041 0 0 0 7.9 5.311L8.97 12.3a2.034 2.034 0 0 0 1.08 1.494c-.07.075-.146.143-.214.221a7.537 7.537 0 0 0-1.771 6L12.4 50.566a7.676 7.676 0 0 0 7.35 7.548v3.314a1 1 0 0 0 1 1zm25.943-2H21.75v-2.3h24.943zM23.746 42.381l-2.97.292-2.739-21.429 3.264-.519zM15.118 4.162a1.78 1.78 0 0 1 .28-.022 1.842 1.842 0 0 1 1.816 1.56l.526 3.435a1.838 1.838 0 0 1-1.54 2.093L10.946 12 9.907 4.962zm-3.771 11.163a5.538 5.538 0 0 1 9.684 3.009l.046.4-4.312.686a1 1 0 0 0-.835 1.114l2.858 22.358a7.628 7.628 0 0 0-5.008 3.159l-3.734-26.319a5.528 5.528 0 0 1 1.301-4.407zm3.053 35.13a5.678 5.678 0 0 1 .288-1.727h6.354a1.727 1.727 0 1 1 0 3.454h-6.377a5.669 5.669 0 0 1-.265-1.727zm1.4 3.727h5.237a3.727 3.727 0 1 0 0-7.454h-5.245a5.654 5.654 0 0 1 3.723-1.922l26.853-2.637a6.765 6.765 0 0 1 .681-.034 7 7 0 1 1 0 14H20.07a5.663 5.663 0 0 1-4.27-1.953z" data-original="url(#a)"></path></g></svg>