<svg xmlns="http://www.w3.org/2000/svg" width="512" height="512" viewBox="0 0 300 300" style="enable-background:new 0 0 512 512" xml:space="preserve"><linearGradient id="a" x1="45.656" x2="256.388" y1="249.463" y2="38.73" gradientUnits="userSpaceOnUse"><stop stop-color="#107eff" offset="0"/><stop stop-color="#ff1616" offset="1"/></linearGradient><path fill="url(#a)" d="M268 52c0-2.211-1.789-4-4-4h-67.691c-2.211 0-4 1.789-4 4v16c0 2.211 1.789 4 4 4H228v16h-.676C221.078 88 216 93.078 216 99.324V108H81.422a4.005 4.005 0 0 0-3.672 2.41l-29.422 68A4.004 4.004 0 0 0 52 184h124v62.992c0 9.379 7.629 17.008 17.008 17.008h49.984c9.379 0 17.008-7.629 17.008-17.008V99.324C260 93.078 254.922 88 248.676 88H248V72c11.027 0 20-8.973 20-20zm-67.691 4h59.008c-1.652 4.656-6.102 8-11.316 8H200.31v-8zm-30.168 120-12.99-19.486c.665-4.189-1.571-8.453-5.662-10.143l-43.809-18.09c-4.781-1.988-10.285.305-12.258 5.09-1.977 4.781.305 10.281 5.09 12.258l43.809 18.09a9.31 9.31 0 0 0 3.57.715c1.48-.001 2.891-.439 4.195-1.094l8.44 12.66H58.09l25.961-60H216v16h-2.625C192.766 132 176 148.766 176 169.375V176zM184 180h68v48h-68zm58.992 76h-49.984c-4.969 0-9.008-4.039-9.008-9.008V236h68v10.992c0 4.969-4.039 9.008-9.008 9.008zM252 99.324V172h-68v-2.625C184 153.176 197.176 140 213.375 140H220c2.211 0 4-1.789 4-4V99.324A3.329 3.329 0 0 1 227.324 96h21.352A3.329 3.329 0 0 1 252 99.324zM60 225.852v5.66c0 2.211-1.789 4-4 4s-4-1.789-4-4v-5.66c0-2.211 1.789-4 4-4s4 1.789 4 4zm0 22.636v5.66c0 2.211-1.789 4-4 4s-4-1.789-4-4v-5.66c0-2.211 1.789-4 4-4s4 1.789 4 4zM51.512 240c0 2.211-1.789 4-4 4h-5.66c-2.211 0-4-1.789-4-4s1.789-4 4-4h5.66c2.211 0 4 1.789 4 4zm22.636 0c0 2.211-1.789 4-4 4h-5.66c-2.211 0-4-1.789-4-4s1.789-4 4-4h5.66c2.211 0 4 1.789 4 4zM60 50c0-7.719-6.281-14-14-14s-14 6.281-14 14 6.281 14 14 14 14-6.281 14-14zm-20 0c0-3.309 2.691-6 6-6s6 2.691 6 6-2.691 6-6 6-6-2.691-6-6zm180 134c-11.027 0-20 8.973-20 20s8.973 20 20 20 20-8.973 20-20-8.973-20-20-20zM160.602 44.199a3.993 3.993 0 0 1-.801-5.598 3.997 3.997 0 0 1 5.598-.801l12 9a3.993 3.993 0 0 1 .801 5.598A3.981 3.981 0 0 1 174.997 54a3.979 3.979 0 0 1-2.395-.801zm17.597 23.403a3.993 3.993 0 0 1-.801 5.598l-12 9a3.98 3.98 0 0 1-2.394.8 3.981 3.981 0 0 1-3.203-1.602 3.993 3.993 0 0 1 .801-5.598l12-9a3.99 3.99 0 0 1 5.597.802zM144 60c0-2.211 1.789-4 4-4h16c2.211 0 4 1.789 4 4s-1.789 4-4 4h-16c-2.211 0-4-1.789-4-4zm-41.724 158a4.276 4.276 0 1 1-8.552 0 4.276 4.276 0 0 1 8.552 0zM81.724 70a4.277 4.277 0 1 1 8.554 0 4.277 4.277 0 0 1-8.554 0z" data-original="url(#a)"/></svg>